# xmcd CD database file
#
# Track frame offsets:
#	150
#	41128
#	84769
#	100475
#	114671
#	146216
#	181259
#	207549
#	237447
#	242323
#	265952
#	287555
#	316307
#
# Disc length: 4558 seconds
#
# Revision: 0
# Processed by: cddbd v1.5.2PL0 Copyright (c) Steve Scherf et al.
# Submitted via: CDex 1.70beta2
#
DISCID=bb11cc0d
DTITLE=Gerry Mulligan - All Star Groups CD2
DYEAR=1957
DGENRE=Jazz
TTITLE0=Blues Intime
TTITLE1=Body and Soul
TTITLE2=Standstill
TTITLE3=Line for Lyons
TTITLE4=Wintersong
TTITLE5=Battle Hymn of the Republican
TTITLE6=Fall Out
TTITLE7=Sweet Georgia Brown
TTITLE8=Introduction by Willis Conover
TTITLE9=My Funny valentine
TTITLE10=Utter Chaos
TTITLE11=Don't Get Around Much Anymore
TTITLE12=Prima Bara Dubla
EXTD=YEAR: 1957
EXTT0=
EXTT1=
EXTT2=
EXTT3=
EXTT4=
EXTT5=
EXTT6=
EXTT7=
EXTT8=
EXTT9=
EXTT10=
EXTT11=
EXTT12=
PLAYORDER=
